<?xml version="1.0" encoding="UTF-8" standalone="no"?>
<svg
   style="fill-rule:evenodd;clip-rule:evenodd;stroke-linecap:round;stroke-linejoin:round;"
   xml:space="preserve"
   version="1.1"
   viewBox="0 0 512 512"
   id="svg4"
   sodipodi:docname="controlz-colored-logo.svg"
   inkscape:version="1.2.1 (9c6d41e, 2022-07-14)"
   xmlns:inkscape="http://www.inkscape.org/namespaces/inkscape"
   xmlns:sodipodi="http://sodipodi.sourceforge.net/DTD/sodipodi-0.dtd"
   xmlns:xlink="http://www.w3.org/1999/xlink"
   xmlns="http://www.w3.org/2000/svg"
   xmlns:svg="http://www.w3.org/2000/svg"
   xmlns:rdf="http://www.w3.org/1999/02/22-rdf-syntax-ns#"
   xmlns:cc="http://creativecommons.org/ns#"
   xmlns:dc="http://purl.org/dc/elements/1.1/"><metadata
   id="metadata10"><rdf:RDF><cc:Work
       rdf:about=""><dc:format>image/svg+xml</dc:format><dc:type
         rdf:resource="http://purl.org/dc/dcmitype/StillImage" /></cc:Work></rdf:RDF></metadata><defs
   id="defs8"><linearGradient
     gradientTransform="matrix(0.26241329,0,0,0.85940351,-267.37312,-355.91737)"
     gradientUnits="userSpaceOnUse"
     id="LinearGradient"
     x1="932.40601"
     x2="2939.54"
     y1="887.20001"
     y2="712.02698">
<stop
   offset="0"
   stop-color="#ff2525"
   id="stop359" />
<stop
   offset="1"
   stop-color="#e1115a"
   id="stop361" />
</linearGradient><linearGradient
     inkscape:collect="always"
     id="linearGradient1364"><stop
       style="stop-color:#000000;stop-opacity:1;"
       offset="0"
       id="stop1360" /><stop
       style="stop-color:#000000;stop-opacity:1;"
       offset="1"
       id="stop1362" /></linearGradient><clipPath
     clipPathUnits="userSpaceOnUse"
     id="clipPath3827"><rect
       style="clip-rule:evenodd;fill:url(#linearGradient3831);fill-opacity:1;fill-rule:evenodd;stroke-width:25.3436;stroke-linecap:round;stroke-linejoin:round;stroke-dashoffset:128.014"
       id="rect3829"
       width="492.46375"
       height="492.46375"
       x="9.7681274"
       y="9.7681274"
       ry="144.69116" /></clipPath><linearGradient
     inkscape:collect="always"
     xlink:href="#linearGradient1364"
     id="linearGradient3831"
     gradientUnits="userSpaceOnUse"
     gradientTransform="translate(-1.9296875e-5)"
     x1="9.7681332"
     y1="256"
     x2="502.23187"
     y2="256" /></defs><sodipodi:namedview
   pagecolor="#ffffff"
   bordercolor="#666666"
   borderopacity="1"
   objecttolerance="10"
   gridtolerance="10"
   guidetolerance="10"
   inkscape:pageopacity="0"
   inkscape:pageshadow="2"
   inkscape:window-width="1390"
   inkscape:window-height="963"
   id="namedview6"
   showgrid="false"
   inkscape:zoom="0.96899711"
   inkscape:cx="230.65084"
   inkscape:cy="278.1226"
   inkscape:window-x="0"
   inkscape:window-y="25"
   inkscape:window-maximized="0"
   inkscape:current-layer="svg4"
   inkscape:showpageshadow="0"
   inkscape:pagecheckerboard="1"
   inkscape:deskcolor="#d1d1d1" />

<path
   d="M 8.93333,7.9999995 H 503.067 c 0.5165,0 0.933,1.39054 0.933,3.0996795 V 500.90612 C 504,502.61529 503.5835,504 503.067,504 H 8.93333 C 8.41779,504 8,502.61529 8,500.90612 V 11.099679 C 8,9.3905395 8.41779,7.9999995 8.93333,7.9999995 Z"
   fill="url(#LinearGradient)"
   fill-rule="nonzero"
   opacity="1"
   stroke="none"
   id="path377"
   style="clip-rule:evenodd;fill:url(#LinearGradient);fill-rule:nonzero;stroke-width:0.32749;stroke-linecap:round;stroke-linejoin:round"
   clip-path="url(#clipPath3827)"
   transform="matrix(1.0293381,0,0,1.0293381,-7.0107053,-7.4107053)" /><path
   stroke="#000000"
   stroke-width="38.4038"
   d="m 238.79079,381.07492 c -27.47557,-3.78984 -53.93804,-16.44023 -74.75423,-37.88328 -49.56463,-51.05719 -48.35504,-132.62693 2.70162,-182.19126 51.05689,-49.56448 132.62663,-48.35489 182.19096,2.70207 18.85565,19.42291 30.36321,43.26176 34.57321,68.07524 m 58.65798,66.18937 -38.06055,-0.36284 m 37.93608,0.46619 2.20346,37.99869 m -202.2501,43.59142 116.89277,-106.52051 -16.17771,122.1385 90.85424,-85.82426 M 186.67978,256.33996 c 0,-40.08221 32.49197,-72.57416 72.57416,-72.57416 40.08145,0 72.57418,32.49195 72.57418,72.57416 0,40.08145 -32.49273,72.57417 -72.57418,72.57417 -40.08219,0 -72.57416,-32.49272 -72.57416,-72.57417 z"
   fill="none"
   stroke-linecap="round"
   opacity="1"
   stroke-linejoin="round"
   id="path2"
   style="fill:none;fill-opacity:1;stroke:#2b2b2b;stroke-opacity:1" /></svg>
