<?xml version="1.0" encoding="UTF-8" standalone="no"?>
<!-- Created with Vectornator (http://vectornator.io/) -->

<svg
   height="324"
   stroke-miterlimit="10"
   style="clip-rule:evenodd;fill-rule:nonzero;stroke-linecap:round;stroke-linejoin:round"
   version="1.1"
   viewBox="0 0 1024 324"
   width="1024"
   xml:space="preserve"
   id="svg391"
   sodipodi:docname="logo-colored.svg"
   inkscape:version="1.2.1 (9c6d41e, 2022-07-14)"
   xmlns:inkscape="http://www.inkscape.org/namespaces/inkscape"
   xmlns:sodipodi="http://sodipodi.sourceforge.net/DTD/sodipodi-0.dtd"
   xmlns:xlink="http://www.w3.org/1999/xlink"
   xmlns="http://www.w3.org/2000/svg"
   xmlns:svg="http://www.w3.org/2000/svg"><sodipodi:namedview
   id="namedview393"
   pagecolor="#505050"
   bordercolor="#ffffff"
   borderopacity="1"
   inkscape:showpageshadow="0"
   inkscape:pageopacity="0"
   inkscape:pagecheckerboard="1"
   inkscape:deskcolor="#505050"
   showgrid="false"
   inkscape:zoom="0.96694469"
   inkscape:cx="647.9171"
   inkscape:cy="375.92636"
   inkscape:window-width="1920"
   inkscape:window-height="963"
   inkscape:window-x="1920"
   inkscape:window-y="25"
   inkscape:window-maximized="1"
   inkscape:current-layer="svg391" />
<defs
   id="defs364">
<path
   d="m 1081.82,1693.43 c -21.72,-0.32 -43.5,1.44 -64.97,5.27 -10.73,1.91 -21.413,4.28 -31.96,7.23 -10.546,2.96 -20.95,6.49 -31.231,10.48 -30.842,11.98 -60.284,28.66 -87.282,50.02 -8.999,7.12 -17.742,14.75 -26.153,22.91 -8.411,8.17 -16.325,16.61 -23.709,25.4 -7.384,8.78 -14.243,17.87 -20.598,27.2 -19.068,27.96 -33.501,58.23 -43.292,89.6 -6.528,20.9 -11.033,42.33 -13.426,63.95 -1.197,10.81 -1.807,21.61 -1.968,32.47 -0.161,10.86 0.172,21.69 1.048,32.53 0.875,10.84 2.212,21.67 4.126,32.41 1.913,10.73 4.411,21.41 7.363,31.96 14.762,52.73 42.457,102.61 83.283,144.66 33.405,34.41 73.026,60.84 116.165,78.3 8.628,3.5 17.385,6.63 26.28,9.4 8.895,2.77 17.919,5.2 27.044,7.24 9.12,2.03 18.3,3.66 27.61,4.95 8.88,1.22 17.47,-0.36 24.95,-4.03 0.55,-0.28 1.04,-0.69 1.58,-0.99 5.72,-1.84 11.18,-4.77 15.91,-9.08 l 181.22,-165.17 -21.67,163.33 c -5.35,40.39 43,65.18 72.62,37.2 l 163.01,-153.96 c 0.61,1.83 1.15,3.71 2,5.42 1.24,2.52 2.76,4.91 4.44,7.11 8.43,11.04 22,17.85 36.91,16.98 8.95,-0.52 17.12,-3.67 23.74,-8.73 2.21,-1.68 4.16,-3.61 6,-5.68 1.84,-2.06 3.53,-4.31 4.95,-6.69 1.42,-2.39 2.62,-4.91 3.56,-7.56 1.88,-5.29 2.79,-11.05 2.44,-17.01 l -4.82,-83.66 c 0.01,-0.37 0.06,-0.68 0.06,-1.05 0.09,-8.96 -2.48,-17.36 -7.08,-24.31 -3.06,-4.64 -7.04,-8.62 -11.61,-11.78 -6.86,-4.73 -15.2,-7.5 -24.16,-7.58 l -87.53,-0.83 c -2.99,-0.03 -5.91,0.18 -8.73,0.73 -5.64,1.1 -10.86,3.38 -15.49,6.44 -6.95,4.6 -12.48,11.12 -15.84,18.86 -2.24,5.15 -3.56,10.85 -3.62,16.82 -0.02,2.99 0.28,5.91 0.83,8.73 1.65,8.46 5.77,16 11.58,21.93 1.94,1.97 4.1,3.79 6.38,5.36 4.14,2.85 8.83,4.91 13.84,6.19 l -71.7,67.64 21.27,-160.03 c 4.73,-35.73 -32.63,-59.08 -61.92,-44.34 0,-116.08 -94.06,-210.18 -210.15,-210.18 -116.082,0 -210.173,94.1 -210.173,210.18 0,108.66 82.433,198.01 188.183,209 l -35.2,32.12 c -8.33,-1.7 -16.64,-3.64 -24.73,-6.16 -13.245,-4.12 -26.106,-9.32 -38.495,-15.58 -18.584,-9.38 -36.058,-21.16 -52.052,-35.1 -5.331,-4.65 -10.535,-9.53 -15.52,-14.67 -12.17,-12.53 -22.778,-25.98 -31.835,-40.15 -9.056,-14.17 -16.52,-29.08 -22.471,-44.4 -2.975,-7.66 -5.576,-15.4 -7.776,-23.26 -2.2,-7.86 -4.001,-15.81 -5.427,-23.81 -2.852,-15.99 -4.208,-32.21 -3.968,-48.4 0.241,-16.19 2.071,-32.4 5.396,-48.31 3.325,-15.9 8.166,-31.48 14.568,-46.62 3.201,-7.57 6.822,-15.06 10.792,-22.35 3.969,-7.28 8.276,-14.41 13.012,-21.36 4.737,-6.94 9.923,-13.7 15.426,-20.25 5.502,-6.54 11.378,-12.86 17.647,-18.94 18.803,-18.26 39.682,-33.03 61.891,-44.28 7.402,-3.75 15,-7.05 22.661,-10.03 7.661,-2.97 15.401,-5.64 23.261,-7.84 7.86,-2.2 15.78,-4.03 23.78,-5.46 15.99,-2.85 32.21,-4.11 48.4,-3.87 24.28,0.36 48.48,4.16 71.86,11.46 7.79,2.43 15.5,5.27 23.07,8.47 7.57,3.2 15.06,6.76 22.34,10.73 21.87,11.91 42.31,27.28 60.56,46.08 4.52,4.66 8.87,9.48 12.98,14.41 4.12,4.94 7.98,9.99 11.68,15.18 3.7,5.18 7.2,10.48 10.48,15.9 3.27,5.41 6.38,10.94 9.23,16.56 11.4,22.51 19.31,46.62 23.55,71.64 0.5,2.94 1.28,5.79 2.32,8.47 1.04,2.68 2.36,5.22 3.87,7.59 3.03,4.74 6.95,8.82 11.46,12.03 2.26,1.6 4.64,2.98 7.17,4.12 7.59,3.45 16.24,4.71 25.08,3.21 8.83,-1.5 16.6,-5.54 22.63,-11.3 2.01,-1.92 3.85,-4.06 5.46,-6.32 1.6,-2.25 2.97,-4.64 4.12,-7.17 3.45,-7.59 4.71,-16.24 3.21,-25.07 -1.43,-8.4 -3.17,-16.75 -5.21,-24.98 -4.08,-16.46 -9.42,-32.59 -15.9,-48.21 -3.24,-7.81 -6.71,-15.52 -10.54,-23.08 -3.82,-7.55 -7.98,-14.94 -12.37,-22.21 -13.2,-21.82 -28.96,-42.32 -47.14,-61.04 -8.16,-8.41 -16.6,-16.26 -25.39,-23.64 -8.78,-7.39 -17.88,-14.25 -27.2,-20.6 -9.32,-6.36 -18.88,-12.23 -28.66,-17.55 -39.12,-21.31 -81.66,-34.35 -124.89,-39.14 -10.81,-1.19 -21.58,-1.9 -32.44,-2.06 z m 675.09,196.24 c -23.37,0 -44.52,4.12 -63.45,12.35 -18.92,8.23 -34.95,19.99 -48.11,35.29 -13.17,15.31 -23.3,34.06 -30.38,56.27 -7.07,22.22 -10.6,47.17 -10.6,74.81 0,28.31 3.85,53.08 11.59,74.3 7.73,21.23 18.37,39.1 31.86,53.58 13.5,14.48 29.52,25.32 48.12,32.56 18.6,7.25 38.59,10.89 59.99,10.89 19.09,0 36.53,-2.96 52.33,-8.89 15.8,-5.92 29.73,-14.34 41.74,-25.2 12.01,-10.86 21.97,-23.86 29.87,-39 7.9,-15.14 13.64,-32.09 17.26,-50.85 h -68.62 c -4.61,20.74 -13.08,36.61 -25.42,47.64 -12.34,11.03 -28.73,16.54 -49.13,16.54 -26.66,0 -46.66,-10.1 -59.99,-30.35 -13.33,-20.24 -19.99,-48.62 -19.99,-85.15 0,-35.88 6.75,-64.11 20.25,-84.68 13.49,-20.57 34.55,-30.85 63.19,-30.85 16.45,0 31.27,5.18 44.43,15.55 13.17,10.37 22.05,24.91 26.66,43.67 h 68.62 c -1.64,-16.45 -6,-31.92 -13.07,-46.4 -7.08,-14.48 -16.62,-27.07 -28.63,-37.77 -12.02,-10.7 -26.36,-19.08 -42.98,-25.17 -16.62,-6.09 -35.13,-9.14 -55.54,-9.14 z m 1308.72,6.92 v 331.77 h 64.18 v -331.77 z m -1982.51,19.46 c 68.3,0 123.63,55.33 123.63,123.62 0,68.29 -55.33,123.62 -123.63,123.62 -68.29,0 -123.62,-55.33 -123.621,-123.62 0,-68.29 55.331,-123.62 123.621,-123.62 z m 1346.43,3.74 v 217.22 c 0,13.17 1.81,25.67 5.43,37.52 3.62,11.85 9.46,22.22 17.52,31.1 8.07,8.89 18.34,15.97 30.85,21.24 12.51,5.26 27.65,7.9 45.42,7.9 17.12,0 31.87,-2.64 44.21,-7.9 12.35,-5.27 22.53,-12.41 30.6,-21.46 8.06,-9.05 13.99,-19.42 17.77,-31.1 3.79,-11.69 5.68,-23.95 5.68,-36.79 v -69.13 h -59.73 v 63.2 c 0,15.14 -3.05,26.81 -9.14,35.04 -6.09,8.22 -15.57,12.34 -28.41,12.34 -13.16,0 -22.61,-4.17 -28.37,-12.57 -5.76,-8.39 -8.63,-20.33 -8.63,-35.8 v -99.72 h 134.28 v -45.42 h -134.28 v -65.67 z m -396.73,59.23 c -19.42,0 -36.81,3.05 -52.12,9.14 -15.3,6.09 -28.37,14.74 -39.23,25.93 -10.86,11.19 -19.19,24.67 -24.95,40.47 -5.76,15.79 -8.63,33.24 -8.63,52.33 0,18.76 2.79,36.07 8.38,51.86 5.6,15.8 13.74,29.28 24.44,40.47 10.7,11.19 23.79,19.93 39.26,26.19 15.47,6.25 33.1,9.36 52.85,9.36 18.76,0 35.79,-3.05 51.1,-9.14 15.3,-6.09 28.27,-14.71 38.97,-25.9 10.7,-11.19 18.93,-24.61 24.69,-40.25 5.76,-15.63 8.64,-33.17 8.64,-52.59 0,-19.42 -2.88,-37.01 -8.64,-52.81 -5.76,-15.8 -13.99,-29.22 -24.69,-40.25 -10.7,-11.02 -23.61,-19.58 -38.75,-25.67 -15.14,-6.09 -32.23,-9.14 -51.32,-9.14 z m 287.23,0 c -19.74,0 -35.89,3.55 -48.4,10.63 -12.51,7.08 -22.55,17.53 -30.12,31.36 v -35.55 h -61.22 v 242.9 h 64.21 v -139.24 c 0,-37.19 16.61,-55.77 49.86,-55.77 15.14,0 25.83,3.29 32.09,9.87 6.25,6.59 9.36,19.24 9.36,38 v 147.14 h 64.68 v -168.35 c 0,-13.16 -2.04,-24.77 -6.15,-34.81 -4.12,-10.04 -9.72,-18.51 -16.79,-25.43 -7.08,-6.91 -15.55,-12.09 -25.43,-15.55 -9.87,-3.45 -20.57,-5.2 -32.09,-5.2 z m 466.35,0 c -6.59,0 -13.02,0.35 -19.27,1.01 -6.25,0.66 -12.41,2.2 -18.5,4.67 -6.09,2.47 -12.02,6.02 -17.78,10.63 -5.76,4.61 -11.27,11.01 -16.53,19.23 v -29.1 h -60.24 v 242.9 h 64.17 v -126.39 c 0,-39.16 19.58,-58.75 58.75,-58.75 5.93,0 11.85,0.48 17.77,1.46 v -65.66 z m 131.71,0 c -19.42,0 -36.78,3.05 -52.08,9.14 -15.31,6.09 -28.4,14.74 -39.26,25.93 -10.86,11.19 -19.16,24.67 -24.92,40.47 -5.76,15.79 -8.66,33.24 -8.66,52.33 0,18.76 2.81,36.07 8.41,51.86 5.59,15.8 13.74,29.28 24.44,40.47 10.69,11.19 23.79,19.93 39.26,26.19 15.47,6.25 33.06,9.36 52.81,9.36 18.76,0 35.8,-3.05 51.1,-9.14 15.31,-6.09 28.31,-14.71 39.01,-25.9 10.7,-11.19 18.93,-24.61 24.69,-40.25 5.76,-15.63 8.64,-33.17 8.64,-52.59 -0.01,-19.42 -2.88,-37.01 -8.64,-52.81 -5.76,-15.8 -13.99,-29.22 -24.69,-40.25 -10.7,-11.02 -23.61,-19.58 -38.75,-25.67 -15.15,-6.09 -32.27,-9.14 -51.36,-9.14 z m 239.73,6.44 v 50.85 h 115.53 l -123.91,142.66 v 49.39 h 209.35 v -52.34 h -127.4 l 123.94,-138.73 v -51.83 z m -1125.02,47.89 c 39.16,0 58.75,24.5 58.75,73.54 0,49.37 -19.59,74.08 -58.75,74.08 -39.17,0 -58.78,-24.71 -58.78,-74.08 0,-49.04 19.61,-73.54 58.78,-73.54 z m 885.29,0 c 39.17,0 58.75,24.5 58.75,73.54 0,49.37 -19.58,74.08 -58.75,74.08 -39.17,0 -58.75,-24.71 -58.75,-74.08 0,-49.04 19.58,-73.54 58.75,-73.54 z"
   id="Fill" />
<linearGradient
   gradientTransform="matrix(1.4176,0,0,1.48332,-771.225,986.283)"
   gradientUnits="userSpaceOnUse"
   id="LinearGradient"
   x1="932.40601"
   x2="2939.54"
   y1="887.20001"
   y2="712.02698">
<stop
   offset="0"
   stop-color="#ff2525"
   id="stop359" />
<stop
   offset="1"
   stop-color="#e1115a"
   id="stop361" />
</linearGradient>





<clipPath
   clip-rule="nonzero"
   id="ClipPath">
<use
   xlink:href="#Fill"
   id="use374" />
</clipPath>

</defs>
<clipPath
   id="ArtboardFrame">
<rect
   height="4096"
   width="4096"
   x="0"
   y="0"
   id="rect366" />
</clipPath>
<g
   clip-path="url(#ArtboardFrame)"
   id="Слой-2"
   visibility="hidden">

</g>
<use
   fill="#171717"
   fill-rule="nonzero"
   opacity="1"
   stroke="none"
   xlink:href="#Fill"
   id="use372"
   transform="matrix(0.38309709,0,0,0.38309709,-272.5832,-622.58338)" /><g
   clip-path="url(#ClipPath)"
   id="g379"
   transform="matrix(0.38309709,0,0,0.38309709,-272.5832,-622.58338)">
<path
   d="M 721.428,1614.4 H 3390.82 c 2.79,0 5.04,2.4 5.04,5.35 v 845.4 c 0,2.95 -2.25,5.34 -5.04,5.34 H 721.428 c -2.785,0 -5.042,-2.39 -5.042,-5.34 v -845.4 c 0,-2.95 2.257,-5.35 5.042,-5.35 z"
   fill="url(#LinearGradient)"
   fill-rule="nonzero"
   opacity="1"
   stroke="none"
   id="path377"
   style="fill:url(#LinearGradient)" />
</g><text
   fill="#dfdfdf"
   font-family="WorldofWater-Regular"
   font-size="49.4923px"
   opacity="0.995433"
   stroke="none"
   text-anchor="start"
   x="590.3559"
   y="242.31866"
   id="text387"
   style="stroke-width:0.383097"> <tspan
   x="629.21893"
   y="289.8226"
   id="tspan383"
   lengthAdjust="spacing"
   style="stroke-width:0.383097"><tspan
   style="font-style:normal;font-variant:normal;font-weight:bold;font-stretch:normal;font-size:48px;font-family:'Mukta Mahee';-inkscape-font-specification:'Mukta Mahee Bold'"
   id="tspan540">OneManStudio</tspan> <tspan
   style="font-style:normal;font-variant:normal;font-weight:normal;font-stretch:normal;font-size:42.6667px;font-family:Courier;-inkscape-font-specification:Courier"
   id="tspan600">❶</tspan></tspan></text>
<g
   id="Слой-3" />
</svg>
